# xmcd
#
# Track frame offsets: 
#        150
#        24616
#        62233
#        95796
#        125773
#        153299
#        190672
#        215483
#        242321
#
# Disc length: 3992 seconds
#
# Revision: 1
# Processed by: cddbd v1.5.2PL0 Copyright (c) Steve Scherf et al.
# Submitted via: ExactAudioCopy v1.0b4
#
DISCID=790f9609
DTITLE=John Mayall - The Masters
DYEAR=1900
DGENRE=Blues
TTITLE0=Don't Waste My Time
TTITLE1=Sleeping By Her Side
TTITLE2=Room To Move
TTITLE3=Saw Mill Gulch Road
TTITLE4=Can't Sleep This Night
TTITLE5=Thoughts About Roxanne
TTITLE6=I'm Gonna Fight For You JB
TTITLE7=I'm Gonna Fight For You JB
TTITLE8=California
EXTD=Music from the original Film Soundtrack "The turning Point"
EXTT0=
EXTT1=
EXTT2=
EXTT3=
EXTT4=
EXTT5=
EXTT6=
EXTT7=
EXTT8=
PLAYORDER=
